<svg id="svg" xmlns="http://www.w3.org/2000/svg" viewBox="0 0 2498.7 427.39"><defs><style>.cls-1{fill:#261825;fill-rule:evenodd;}</style></defs><title>paint-tube</title><g id="paint_tube" data-name="paint tube"><path id="paint_tube-2" data-name="paint tube-2" class="cls-1" d="M-146.3,172.21s312.14,10.29,428.93,29.88,175.47,12,186,8.68,26.53-3.12,37.59-4.82,24.27-2.8,32.77-3.86,17.67-2,23.13-6.75,9.32-6.53,15.43-10.6,9.73-10.87,20.24-13.49,11.23-.43,15.42-6.75,5.71-7,4.82-13.5a119.47,119.47,0,0,0-2.89-13.49c-1.46-6.1-1-11.19,1-15.42,1.76-3.78,4.73-4.79,7.71-7.71,12.69,7.18,17.62,12.7,20.25,20.24a14.44,14.44,0,0,0,3.74,6.24c3.15,2.82,7.77,3.4,14.57,4.36,10.22,1.44,15.06,4.93,16.39,13.5s8.63,16.22,12.53,19.27.85,7.54,22.17,12.53,44.08,10.59,68.43,13.5,74.36,12.62,105.07,9.64,130.52-2.64,180.25,1,124.18-1,156.15-7.71,55.07-9.82,122.42-1.93,127.63-4.59,183.14-2.89,172.53,22.43,215.91,19.28c5.43-.39,44,4.57,89.34,10.8,71.76,9.88,160.31,22.94,160.31,22.94l-5.78,35.66-397.13-39.52-176.39,8.68-184.11-1-191.81,1.93L877.36,259l-159-5.78c18.3,37.58-324.68,12.3-332.55-3.86l-143.62,1.93-188,3.86-227.48-20.25Zm732.56-106a40.16,40.16,0,0,0-17.35,8.68c-3.76,3.26-10.11,15-14.46,28.91a59.84,59.84,0,0,0-2.89,17.35,70,70,0,0,0,1.93,13.5,19,19,0,0,0,1.93,5.78c1.18,2.36,1.55,4.62,3.85,5.79,13.36-1.11,46.81-6.46,51.09-9.64,3.14-2.35-.35.17,3.86-15.43,1-3.76,5.82-6.23,7.71-9.64.15-2.71-1.47-4.43-2.9-6.74C623.55,112.06,602.48,86,586.26,66.18Z" transform="translate(173.29 -1.11)"/><path id="Forme_4" data-name="Forme 4" class="cls-1" d="M577.59,64.25a3.38,3.38,0,0,0-2.89-4.82C540.32,48.51,457.71,21.62,445.53,18a56.57,56.57,0,0,1-8.67-2.9c-2.21-1-4.82-2.75-7.71-1.92a6,6,0,0,0-1.93,1,43.76,43.76,0,0,0-6.75,5.78c-5.26,6.49-42.32,44-57.83,59.77a2.23,2.23,0,0,0,0,2.89c59.76,18.31,122.41,37.59,182.17,55.9a3.73,3.73,0,0,0,2.9-1,3.8,3.8,0,0,0,1-3.86,74.53,74.53,0,0,1,3.86-41.44C556.91,81.36,562.43,69.33,577.59,64.25ZM423.36,8.35,354,78.71c-9.85.71-16.75-2.88-18.31-7.71a8.41,8.41,0,0,1,0-4.82L397.34,3.53a18.15,18.15,0,0,1,4.82-1.93C409.57-.17,417.32,3.06,423.36,8.35Z" transform="translate(173.29 -1.11)"/></g><path class="cls-1" d="M65.23,131.58" transform="translate(173.29 -1.11)"/><path class="cls-1" d="M1898.33,228.1" transform="translate(173.29 -1.11)"/><path class="cls-1" d="M1748.88,221.5l134.26-8c57.42-3.64,123-3.64,123-3.64s77.47,3.94,96.3,1.82,95.7,4.25,96,5.47-10.63,41.62-12.76,46.48-40.71,46.48-53.16,52.86-61.37,4.86-108.15,1.82-57.73-5.77-116.06-7.59-101.77-3-122.73-3.35-58.33-8.2-79.29-5.77-121.52,4.26-121.52,4.26-15.49-39.8-12.46-42.54,23.09-18.83,23.09-18.83l196,20.9-4.25-13" transform="translate(173.29 -1.11)"/><path class="cls-1" d="M1878.58,176.76" transform="translate(173.29 -1.11)"/><path class="cls-1" d="M10.64,228.1l-83.79,53.26s53.81,99.46,55.86,100.82,195.51,25.89,195.51,25.89L606,410.79l249.32,6.13s476.85,11.58,484.35,11.58,394.42-6.13,406.68-6.13,47.69-30.65,47.69-30.65l-39-130.18L1596.5,233.68H1492.28l-182.57,12.94" transform="translate(173.29 -1.11)"/><path class="cls-1" d="M1658.5,146.19" transform="translate(173.29 -1.11)"/><path class="cls-1" d="M2226.63,290.77l-136.24-22.35s-8.86,64.71-5.45,67.44,106.27,36.78,106.27,36.78L2255.92,321l28.61-118.38,40.87,62.84" transform="translate(173.29 -1.11)"/><polygon class="cls-1" points="1898.55 421.53 2335.89 421.53 2333.29 270.71 2176.48 270.71 1929.2 275.48 1867.21 295.92 1898.55 421.53"/></svg>