<svg id="svg" xmlns="http://www.w3.org/2000/svg" width="2160" height="547" viewBox="0 0 2160 547">
  <defs>
    <style>
      .cls-1 {
        fill: #cead81;
        fill-rule: evenodd;
      }
    </style>
  </defs>
  <path id="palette" class="cls-1" d="M-11,117s120.646,6.258,225-1S396.47,58.176,456,60,584.124,79.636,623,90s52,17,52,17c0.063-.016,46.212-122.236,129-104,29.17,6.425-28.069,57.157-26,68,1.543,8.088,8.249,11.1,12,9,27.559-15.413,12.046-37.653,58-36,44.044,1.584,62.169,51.111,52,76-11.819,28.928-32,38-32,38s4.077,0.9,26,7,100,27.984,125,36,149.96,35.838,222,39,221.68,9.26,261,0,255.25-52.7,319-54c62.68-1.277,98.45,5.785,173,12s144.38-4.569,177-5,33,79,33,79l-7,50,6,45,19,186-619-15-429,1-410-8-229,5s-265.035-6.336-265-8-194,9-194,9L-86,515s-19.012-161.284-21-171S-11,117-11,117ZM849,78s-5.349-1.509-9,1-7.6,2.99-7,9,3.9,10.991,9,12,14.151,0.741,16-2,4.151-5.009,4-9a11.709,11.709,0,0,0-4-9C855.349,77.509,849,78,849,78Z"/>
</svg>
