<svg id="svg" xmlns="http://www.w3.org/2000/svg" width="2160" height="130" viewBox="0 0 2160 130">
  <defs>
    <style>
      .cls-1 {
        fill: #341830;
        fill-rule: evenodd;
      }
    </style>
  </defs>
  <path id="navbar" class="cls-1" d="M-1,114s46.747-6.76,91-3,95.029,8.24,161,6,110.015-1.127,170-6,76.278-10.4,171-5,141.967-12.087,230-5,189.74,20.066,285,9,172.47-9.413,207-10,105.59,4.668,142,3,230.25,3.808,274,10c44.16,6.25,116.69,4.159,152,2s215.37-11.667,290-12,36-98,36-98-283.01-46.337-299-46-450.26-9.787-465-10-175-10-175-10S-84.132-54.5-87-54-1,114-1,114Z"/>
</svg>
