<svg id="svg" xmlns="http://www.w3.org/2000/svg" viewBox="0 0 2271.02 283.88"><defs><style>.cls-1{fill:#bb9563;fill-rule:evenodd;}</style></defs><title>nothing-up</title><path class="cls-1" d="M-30.34,139S135,119.8,260.39,136.19s266.51-6.61,266.51-6.61,108.32-13,167.46,0,186.7,3.9,258-5.79S1039.25,112,1107,112.68s176,23,268.65,29.32,253.68-31,257.24-29.45,41.33-11.28,129.69,5.83,220.91,4.27,220.91,4.27l109-13.27s62.71-4.54,94.06,4,37.77,129,37.77,129L2160,360.66S1769.66,389.87,1754,392s-1097.39-77-1097.39-77l-615,17.1-88.36-28.5Z" transform="translate(46.73 -108.17)"/></svg>