<svg id="svg" xmlns="http://www.w3.org/2000/svg" width="2160" height="178" viewBox="0 0 2160 178">
  <defs>
    <style>
      .cls-1 {
        fill: #d8b282;
        fill-rule: evenodd;
      }
    </style>
  </defs>
  <path id="nothing_up_3" data-name="nothing up 3" class="cls-1" d="M-56,178s152.607-15.393,337-32,307.606-27.24,362-36c132.168-21.284,81.444-8.578,200-17,29.8-2.117,84.64-2.341,115-1,126.48,5.585,133.96,2.817,251,18,118.89,15.422,194.98,5.409,306,17,158.4,16.536,405.1,39.987,431,39,59.58-2.27,96.37-2.547,157-6s116.01-39.976,141-69-10-82-10-82L2109,43,1918,30l-329-4L1318,5,1036,8H819L517,0,289,2-233,31Z"/>
</svg>
