<svg id="svg" xmlns="http://www.w3.org/2000/svg" viewBox="0 0 2268.15 237.44"><defs><style>.cls-1{fill:#261825;fill-rule:evenodd;}</style></defs><title>paint-tube</title><g id="paint_tube" data-name="paint tube"><path id="paint_tube-2" data-name="paint tube-2" class="cls-1" d="M-46.93,202.3s240.42,7.92,330.38,23S418.6,234.54,426.74,232s20.43-2.41,28.95-3.72,18.69-2.15,25.24-3,13.62-1.53,17.82-5.19,7.18-5,11.88-8.17,7.5-8.37,15.59-10.39,8.65-.33,11.88-5.2,4.4-5.4,3.71-10.39a92,92,0,0,0-2.22-10.4c-1.13-4.7-.77-8.62.74-11.88,1.35-2.91,3.64-3.69,5.94-5.94,9.77,5.54,13.57,9.79,15.59,15.59a11.09,11.09,0,0,0,2.88,4.81c2.43,2.17,6,2.62,11.22,3.36,7.87,1.11,11.6,3.8,12.63,10.39s6.64,12.5,9.65,14.85.65,5.81,17.07,9.65,34,8.16,52.71,10.4,57.28,9.72,80.93,7.42,100.53-2,138.83.75,95.65-.75,120.27-5.94,42.42-7.57,94.29-1.49,98.31-3.53,141.06-2.23,132.9,17.28,166.31,14.85,118.82-9.91,155.16-6.68S1602,266.15,1602,266.15l-4.45,27.47-305.88-30.44-135.86,6.68L1014,269.12,866.25,270.6l-124.73-1.48L619,264.66c14.1,28.95-250.07,9.48-256.13-3l-110.62,1.49-144.78,3L-67.72,250.56Zm564.24-81.67A31,31,0,0,0,504,127.31c-2.9,2.52-7.79,11.57-11.14,22.28A45.61,45.61,0,0,0,490.59,163a53.55,53.55,0,0,0,1.48,10.39,14.94,14.94,0,0,0,1.49,4.46c.91,1.82,1.19,3.55,3,4.45,10.29-.85,36.06-5,39.35-7.42,2.42-1.8-.26.13,3-11.88.78-2.9,4.49-4.8,5.94-7.42.12-2.09-1.13-3.42-2.22-5.2C546,156,529.8,135.9,517.31,120.63Z" transform="translate(67.72 -70.51)"/><path id="Forme_4" data-name="Forme 4" class="cls-1" d="M510.63,119.15a2.6,2.6,0,0,0-2.23-3.71c-26.48-8.42-90.11-29.13-99.48-31.93a42.23,42.23,0,0,1-6.68-2.23c-1.7-.79-3.72-2.12-5.94-1.48a4.83,4.83,0,0,0-1.49.74A33,33,0,0,0,389.62,85c-4.06,5-32.6,33.87-44.55,46a1.72,1.72,0,0,0,0,2.22c46,14.11,94.29,29,140.32,43.06a2.83,2.83,0,0,0,2.23-.74,2.94,2.94,0,0,0,.74-3,57.42,57.42,0,0,1,3-31.92C494.71,132.32,499,123.05,510.63,119.15ZM391.84,76.09l-53.45,54.19c-7.59.55-12.91-2.22-14.11-5.94a6.51,6.51,0,0,1,0-3.71L371.8,72.37a13.84,13.84,0,0,1,3.71-1.48C381.22,69.52,387.19,72,391.84,76.09Z" transform="translate(67.72 -70.51)"/><path class="cls-1" d="M1566.14,233.61s81.77,8.55,104,8.72c31.08.24,208.29-16.65,208.29-16.65s52.53-9.39,81.42-3.09,142.35-8.55,147.86-2.17,80.37-2,84.31,1.38,8.4,25.22,8.4,25.22-22.32,25-23.37,26S2143.18,308,2143.18,308,1714,289.3,1712.72,289.3s-99.81-2.1-99.81-2.1l-39.39-3.15-3.15-20.68-46.23-12.94L1567,234.94l20.75,19.17" transform="translate(67.72 -70.51)"/></g><path class="cls-1" d="M116,171" transform="translate(67.72 -70.51)"/></svg>