<svg id="svg" xmlns="http://www.w3.org/2000/svg" width="2160" height="300" viewBox="0 0 2160 300">
  <defs>
    <style>
      .cls-1 {
        fill: #261825;
        fill-rule: evenodd;
      }
    </style>
  </defs>
  <g id="paint_tube" data-name="paint tube">
    <path id="paint_tube-2" data-name="paint tube" class="cls-1" d="M-36,177s323.828,10.673,445,31,182.037,12.429,193,9,27.523-3.234,39-5,25.176-2.9,34-4,18.335-2.064,24-7,9.664-6.781,16-11,10.1-11.278,21-14,11.648-.44,16-7,5.926-7.268,5-14a123.7,123.7,0,0,0-3-14c-1.514-6.326-1.037-11.613,1-16,1.821-3.922,4.9-4.969,8-8,13.16,7.454,18.277,13.184,21,21a15.059,15.059,0,0,0,3.882,6.478c3.275,2.918,8.064,3.529,15.118,4.522,10.6,1.491,15.623,5.112,17,14s8.952,16.828,13,20,0.882,7.822,23,13,45.739,10.985,71,14,77.14,13.094,109,10,135.41-2.734,187,1,128.83-1,162-8,57.13-10.185,127-2,132.41-4.762,190-3,179,23.266,224,20,160.05-13.347,209-9,50,44,50,44l-6,37-412-41-183,9-191-1-199,2-168-2-165-6c18.99,38.993-336.837,12.761-345-4l-149,2-195,4L-64,242ZM724,67a41.665,41.665,0,0,0-18,9c-3.9,3.387-10.489,15.576-15,30a61.715,61.715,0,0,0-3,18,72.279,72.279,0,0,0,2,14,20.155,20.155,0,0,0,2,6c1.23,2.447,1.611,4.787,4,6,13.859-1.149,48.564-6.693,53-10,3.257-2.429-.36.179,4-16,1.05-3.9,6.04-6.466,8-10,0.161-2.815-1.523-4.605-3-7C762.686,114.6,740.825,87.564,724,67Zm45,39"/>
    <path id="Forme_4" data-name="Forme 4" class="cls-1" d="M715,65a3.552,3.552,0,0,0,0-3,3.588,3.588,0,0,0-3-2C676.332,48.67,590.629,20.769,578,17a57.891,57.891,0,0,1-9-3c-2.291-1.071-5-2.86-8-2a6.469,6.469,0,0,0-2,1,44.711,44.711,0,0,0-7,6c-5.462,6.728-43.909,45.625-60,62a2.331,2.331,0,0,0,0,3c62,19,127,39,189,58a3.853,3.853,0,0,0,3-1,3.941,3.941,0,0,0,1-4,77.4,77.4,0,0,1,4-43C693.55,82.748,699.274,70.262,715,65ZM555,7L483,80c-10.222.731-17.383-2.989-19-8a8.742,8.742,0,0,1,0-5L528,2a18.757,18.757,0,0,1,5-2C540.693-1.839,548.726,1.514,555,7Z"/>
  </g>
</svg>
