<svg id="svg" xmlns="http://www.w3.org/2000/svg" width="2160" height="352" viewBox="0 0 2160 352">
  <defs>
    <style>
      .cls-1 {
        fill: #bb9664;
        fill-rule: evenodd;
      }
    </style>
  </defs>
  <path id="paint_tube_down" data-name="paint tube down" class="cls-1" d="M-19,261s247.021,6.256,384-3,244-17,244-17L559,111l18-37-6-15-16,7L542,30,634,0l12,36-14,5,6,14,36,14,74,171s129.1,7.653,171,2,187.62-12.8,209-14,126.06-19.117,195-20,194.77,1.709,228,9,175.56,16.98,193,18,426.9,44.986,547,42,127.42,95.123,121,103-243,138.834-285,143-694.63-43.736-732-43-897.137-48.307-905-47S12.78,417.381-9,417-19,261-19,261ZM661,80c3.239-6.134-40.069,17.163-36,22C629.3,107.111,655.867,89.722,661,80Z"/>
</svg>
