<svg id="svg" xmlns="http://www.w3.org/2000/svg" viewBox="0 0 2544.62 529.16"><defs><style>.cls-1{fill:#d8b282;fill-rule:evenodd;}</style></defs><title>pinceau-up</title><g id="pinceau_up" data-name="pinceau up"><path id="pinceau" class="cls-1" d="M-62,310.74c41.58-3.46-14.3-58.65,27.36-56.52,30.51,1.54,87.31,23.2,117.73,26.84,76.82,9.17,86-12.24,259.21,1.08,88,17.39,77.23,19.82,264.26,20.32,184,11.52,247-18.92,311.48-13.63,115.13,6.06,230.78-6.39,372.76-2.93,109.32,2.73,215.89,18.34,294.38,6.25,69.39-10.69,127.69-18,196.86-30.06,99.31-17.32,201,5.71,305.15,9.07l244.18-11.3s107.36-51.5,97.66,71.42-76.7,141.14-80,141-87,78-87,78l-732-18-215-11-156,3-139-1-125,4-95-7-104-15s-378.76,16.1-382,16-429-20-429-20Zm1664.69-84.1c-21.61-68-17-50.8-21.74-71.08-2.49-10.6-5-21.26-5-21.26s6,2.33,17-.21c11.87-2.74,14.41-8.35,14.41-8.35s16.68,60.85,18.79,70c4.2,18.21,8.16,34.29,10.72,49.54s4,20.31,5.51,32.29a33.21,33.21,0,0,1,.72,6c-18,2.69-20.11,3.25-20.16,3.08C1619.77,274.92,1611.59,254.71,1602.66,226.64Z" transform="translate(115 -21.12)"/><path id="Forme_2" data-name="Forme 2" class="cls-1" d="M1570.94,90a40.49,40.49,0,0,0-.6,13c.4,3.47,4.37,26,5.65,29.29a41.7,41.7,0,0,0,16.07-1.26c4.63-1.51,10.85-4,14.36-7.34-1.19-3.55-9.82-26.31-11.65-29.57a57.88,57.88,0,0,0-5.62-8.27A26.19,26.19,0,0,1,1570.94,90Z" transform="translate(115 -21.12)"/><path id="Forme_3" data-name="Forme 3" class="cls-1" d="M1551,23c4-4.46,16.24-.32,23.84,4.11,14.72,8.58,22.89,24.88,22.26,38.07a23.81,23.81,0,0,1-3.55,11.85c-2.14,3.33-5.32,6.29-6.27,5.71-1.18-.71,2.37-7.65,2.64-13.89.63-14.1-9.29-24.81-9.88-24.48s7.17,11.66,5.8,26.29c-.83,8.78-3.41,14.51-7.78,16.66-8.68,4.27-24.33-5.33-28.23-17.32-3.34-10.27,4.22-17.19,3.34-28.88C1552.84,36.7,1548.1,26.32,1551,23Z" transform="translate(115 -21.12)"/></g></svg>